:SAMPLES-PER-SECOND 30
:FRAME-RANGE 1-1390
:FULLY-SPECIFIED
:DEGREES
305
root  -24.293 31.1467 -33.7796 -9.03165 -42.1395 4.50703
RightUpLeg  -80.0747 -17.2446 66.4839
RightLeg  119.799 9.92317 -14.8858
RightFoot  -27.8105 -0.527514 -2.34112
RightToes  6.35937e-011 1.2921e-014 -6.02303e-014
Spine  17.9945 0.925172 4.5221
Spine1  -0.62829 5.14168 -10.6234
HEad  7.94413 8.91189 -9.23348
LeftShoulder1  2.75547 -8.93816 -15.9988
LeftArm  54.1573 -29.9212 -69.0014
LeftForeArm  24.5676 -6.02844 -17.6827
LeftHand  0.014456 8.27277 2.25846
RightShoulder  2.47877 8.51812 14.2018
RightArm  -7.77014 37.3639 82.7467
RightForeArm  111.831 -3.3127 2.83075
RightHand  1.47643 -13.7587 -20.5108
LeftUpLeg  -30.1752 -10.6826 -16.3714
LeftLeg  76.4304 3.46024 17.6335
LeftFoot  -32.8147 -0.108 -1.6141
LeftToes  4.52251e-011 4.07896e-011 -5.42348e-012
306
root  -24.4547 31.7549 -33.2049 -8.70933 -43.3757 3.55451
RightUpLeg  -80.2001 -16.4766 67.8676
RightLeg  118.99 9.94363 -15.3842
RightFoot  -27.9932 -0.45231 -1.79275
RightToes  6.35937e-011 1.2921e-014 -6.02303e-014
Spine  17.0168 0.849423 5.23744
Spine1  -0.967135 4.94055 -9.63696
HEad  5.69413 8.52826 -7.71297
LeftShoulder1  2.84472 -9.26384 -16.1365
LeftArm  56.9597 -28.9295 -68.3908
LeftForeArm  21.3845 -6.90833 -17.5433
LeftHand  0.0127484 8.2258 2.2188
RightShoulder  2.42343 8.23166 14.2446
RightArm  -5.19295 36.2957 83.0767
RightForeArm  112.976 -3.56351 4.66303
RightHand  1.22549 -11.1515 -24.5204
LeftUpLeg  -27.4468 -10.2215 -15.937
LeftLeg  73.8574 4.28765 17.5161
LeftFoot  -32.3159 -0.115324 -1.67625
LeftToes  4.52251e-011 4.07896e-011 -5.42348e-012
307
root  -24.5667 32.4808 -32.694 -8.44223 -45.2955 2.96392
RightUpLeg  -80.0966 -14.2749 68.0659
RightLeg  117.851 8.79136 -14.2318
RightFoot  -27.6134 -0.433119 -1.71927
RightToes  6.35937e-011 1.2921e-014 -6.02303e-014
Spine  16.4417 0.7283 6.09104
Spine1  -1.89504 4.72522 -9.20829
HEad  3.45154 7.14516 -5.79362
LeftShoulder1  2.97282 -9.65858 -16.4614
LeftArm  60.2342 -28.0963 -67.4757
LeftForeArm  18.3375 -7.99081 -17.2809
LeftHand  0.00821523 8.35688 2.15629
RightShoulder  2.31425 7.80977 14.0369
RightArm  -4.89185 35.4412 84.8654
RightForeArm  113.994 -3.52929 4.74336
RightHand  0.191263 -6.41954 -22.4087
LeftUpLeg  -24.7316 -9.67675 -15.5477
LeftLeg  70.3445 5.46829 17.4643
LeftFoot  -31.4008 -0.0829483 -1.53942
LeftToes  4.52251e-011 4.07896e-011 -5.42348e-012
308
root  -24.6316 33.3149 -32.2277 -8.45317 -47.0035 2.1265
RightUpLeg  -79.4829 -11.3056 67.2284
RightLeg  115.884 7.57509 -13.2682
RightFoot  -26.8986 -0.42212 -1.7548
RightToes  6.35937e-011 1.2921e-014 -6.02303e-014
Spine  16.2066 -0.0582148 6.60564
Spine1  -3.01211 3.68838 -8.26908
HEad  3.19177 6.12823 -3.14249
LeftShoulder1  3.10902 -9.96345 -17.0043
LeftArm  54.919 -27.6428 -65.439
LeftForeArm  21.5404 -6.69541 -17.6056
LeftHand  0.0139972 8.11472 2.16621
RightShoulder  2.22275 7.37916 14.0134
RightArm  -2.24173 35.3167 87.1118
RightForeArm  113.732 -3.76948 6.13563
RightHand  -0.509361 -1.50762 -15.1153
LeftUpLeg  -21.3949 -9.11921 -15.1293
LeftLeg  66.1971 6.89421 17.354
LeftFoot  -29.8445 -0.0422762 -1.363
LeftToes  4.52251e-011 4.07896e-011 -5.42348e-012
309
root  -24.7694 34.2795 -31.7943 -8.91948 -47.856 1.09857
RightUpLeg  -79.4201 -9.21281 66.9438
RightLeg  113.492 7.58418 -14.7115
RightFoot  -26.4481 -0.457513 -2.09797
RightToes  6.35937e-011 1.2921e-014 -6.02303e-014
Spine  16.1348 -1.15674 6.33665
Spine1  -3.88767 2.07988 -6.27409
HEad  5.68858 3.78749 1.06931
LeftShoulder1  3.26859 -10.3389 -17.573
LeftArm  46.8082 -27.057 -63.1647
LeftForeArm  26.7993 -4.53648 -17.9512
LeftHand  0.00992367 8.25543 2.09537
RightShoulder  2.14829 7.06216 13.9192
RightArm  1.69845 35.2341 89.3588
RightForeArm  112.126 -4.1533 8.05129
RightHand  0.101784 -7.38422 -7.69336
LeftUpLeg  -16.9723 -9.54268 -14.5979
LeftLeg  61.3109 8.03071 16.079
LeftFoot  -27.5247 0.0351231 -0.917393
LeftToes  4.52251e-011 4.07896e-011 -5.42348e-012
310
root  -24.9687 35.3563 -31.2548 -10.0844 -49.45 1.29338
RightUpLeg  -79.0087 -8.58548 66.8712
RightLeg  112.533 6.56967 -13.2782
RightFoot  -26.6859 -0.154654 0.195415
RightToes  6.35937e-011 1.2921e-014 -6.02303e-014
Spine  14.9911 -1.66732 6.06006
Spine1  -3.895 1.25486 -5.02206
HEad  10.1645 0.748615 4.44888
LeftShoulder1  3.38076 -10.6118 -17.9364
LeftArm  45.998 -26.0379 -61.517
LeftForeArm  26.0277 -4.45542 -17.9981
LeftHand  0.00796656 8.28904 2.00526
RightShoulder  2.14924 6.64757 14.876
RightArm  2.36417 35.2956 90.8416
RightForeArm  108.667 -4.34214 8.2185
RightHand  0.585095 -13.4278 -9.1387
LeftUpLeg  -12.0784 -8.28302 -14.5781
LeftLeg  54.7643 8.94573 13.8143
LeftFoot  -24.783 0.167714 0.159646
LeftToes  4.52251e-011 4.07896e-011 -5.42348e-012
311
root  -25.0361 36.4427 -30.7443 -12.3548 -51.6841 3.37793
RightUpLeg  -79.1773 -8.84122 66.8254
RightLeg  113.53 5.60451 -10.7699
RightFoot  -24.052 0.0795613 2.17792
RightToes  6.35937e-011 1.2921e-014 -6.02303e-014
Spine  14.6588 -1.63347 5.58825
Spine1  -4.52969 1.17139 -4.46327
HEad  14.4449 -1.38883 6.03882
LeftShoulder1  3.42509 -10.2832 -18.9258
LeftArm  45.0967 -25.4919 -60.5737
LeftForeArm  29.7632 -4.39969 -17.8615
LeftHand  0.00193728 6.61765 3.21079
RightShoulder  2.32814 6.984 16.0141
RightArm  1.27792 36.0767 91.3791
RightForeArm  112.577 -3.99016 7.16577
RightHand  0.842406 -16.0264 -9.75163
LeftUpLeg  -8.52805 -4.83752 -15.2685
LeftLeg  48.3963 9.06347 11.1943
LeftFoot  -19.8248 0.16334 0.598256
LeftToes  4.52251e-011 4.07896e-011 -5.42348e-012
